PathFileType	4	(X/Y/Z)	C:\Users\WrightLab\Desktop\Jo\P1.2Trial10.trc
DataRate	CameraRate	NumFrames	NumMarkers	Units	OrigDataRate	OrigDataStartFrame	OrigNumFrames
100.00	100.00	       14	19	mm	100.00	68	       539
Frame#	Time	Headset_Front			Headset_Back			Headset_Left			Headset_Right			Left_Shoulder			Right_Shoulder			Sternum			C7			Left Elbow			Right Elbow			Left Wrist			Right Wrist			Left ASIS			Right ASIS			S2			Left Knee			Right Knee			Left Ankle			Right Ankle			
		X1	Y1	Z1	X2	Y2	Z2	X3	Y3	Z3	X4	Y4	Z4	X5	Y5	Z5	X6	Y6	Z6	X7	Y7	Z7	X8	Y8	Z8	X9	Y9	Z9	X10	Y10	Z10	X11	Y11	Z11	X12	Y12	Z12	X13	Y13	Z13	X14	Y14	Z14	X15	Y15	Z15	X16	Y16	Z16	X17	Y17	Z17	X18	Y18	Z18	X19	Y19	Z19	

68	0.670	-464.29544	1334.03357	-1124.60474	-618.12927	1167.54004	-1393.32361				-546.73840	1366.27161	-1244.04614	-203.14308	1177.82605	-1295.41077				-437.01028	1100.70142	-1235.60229				-112.98438	905.35669	-1383.56641				-34.52248	694.58496	-1290.34253				-294.57681	789.40881	-1244.37610	-565.41437	783.88892	-1309.72632				-231.63329	353.65378	-1353.57080	-610.59351	408.14600	-1272.17725	-113.43050	87.03482	-1608.10950	-672.90930	87.21217	-1234.71094	
69	0.680	-470.89807	1336.26904	-1117.24524							-552.90082	1368.84631	-1237.17615	-211.27220	1180.01416	-1287.98230				-445.20746	1100.54187	-1231.97034				-120.38104	905.77380	-1376.18262				-43.90411	695.40997	-1282.09253				-301.64127	791.64526	-1237.16956	-578.51532	789.10638	-1296.53162				-238.04642	353.88583	-1353.28979	-615.66418	406.56268	-1270.56360	-118.74772	91.44516	-1601.04541	-675.36346	84.71712	-1231.41846	
70	0.690	-477.44540	1338.93237	-1110.22180	-632.92261	1172.86682	-1379.97729				-559.40210	1371.85645	-1230.25574	-218.27544	1181.78613	-1279.24451				-451.70123	1103.48804	-1220.63171				-129.96423	907.70490	-1367.10266				-53.42687	697.28857	-1275.00146				-311.29321	793.69159	-1232.57739	-586.44275	791.35791	-1287.89319				-247.94087	358.45349	-1338.40869	-621.68091	406.04416	-1267.94458	-124.57181	95.60473	-1592.00891	-677.41016	84.63651	-1228.42908	
71	0.700	-483.61377	1341.11584	-1102.60828							-565.87311	1374.24768	-1221.52197	-225.58577	1183.86902	-1270.61743				-459.78748	1106.07471	-1212.94385				-137.70314	909.73114	-1360.10046				-62.83651	698.79034	-1267.07788				-316.53543	796.62256	-1223.04956	-594.48932	794.41351	-1278.12402				-255.31422	359.01599	-1333.75061	-628.21722	409.93192	-1256.19958	-128.13005	101.39046	-1582.52600	-678.79285	83.74560	-1226.65894	
72	0.710	-489.01691	1342.92834	-1096.30981	-647.29651	1178.65173	-1364.69922				-571.80139	1378.08850	-1217.38220	-232.71265	1186.01526	-1261.69250				-467.28598	1107.27893	-1211.58276				-147.82294	911.72723	-1348.49878				-72.56711	699.85126	-1258.71753				-325.84177	799.89020	-1209.31555	-601.21735	797.91064	-1268.59534	-745.84656	686.07745	-1490.91626	-265.38147	363.08258	-1320.22217	-634.19336	410.95035	-1249.93799	-132.71953	106.64732	-1571.60046	-680.58557	80.34309	-1225.64490	
73	0.720	-495.72217	1346.39929	-1088.67700	-653.29468	1181.61108	-1357.74683				-578.39465	1380.69519	-1209.51855	-239.86627	1188.68115	-1254.12354				-473.97552	1111.23352	-1196.80969				-155.00401	913.08246	-1342.45898				-82.87565	701.58594	-1250.01648				-333.96341	802.08655	-1201.71643	-609.21490	800.72229	-1258.43042				-273.47797	365.69183	-1310.43811	-639.46936	412.47189	-1243.94617	-135.76411	113.28716	-1562.52551	-681.95752	78.71153	-1224.77246	
74	0.730	-500.78375	1348.17554	-1081.18237							-583.91620	1382.31836	-1201.35901	-246.70050	1190.66479	-1245.16675				-481.08725	1114.99731	-1190.17810				-164.00958	915.80115	-1334.09790				-92.95583	703.14380	-1241.43811				-341.94156	805.17230	-1192.57715	-616.87030	803.62225	-1246.57263	-761.62439	689.36371	-1461.64197	-281.20206	367.21475	-1294.15222	-645.50555	412.44092	-1240.67456	-140.64276	118.17986	-1551.84265	-682.85840	78.22406	-1222.11560	
75	0.740	-507.75745	1350.23218	-1074.06177	-667.02502	1187.50659	-1341.43835				-590.28796	1384.28589	-1193.97766	-253.40758	1192.89392	-1237.14063				-488.89444	1117.80237	-1182.09583				-171.53874	917.79279	-1326.72791				-102.29320	705.01776	-1232.36719				-349.39993	807.02307	-1185.74512	-623.15924	806.55640	-1237.93262				-285.83240	367.91476	-1281.33301	-648.89355	412.71417	-1237.50049	-146.55052	121.83675	-1540.53394	-683.67627	77.88630	-1220.80981	
76	0.750	-513.79260	1352.22571	-1068.14050	-672.70264	1190.38269	-1334.47852				-596.05402	1386.16846	-1188.96826	-259.74585	1195.38269	-1230.68164				-494.66010	1120.87988	-1173.48779				-179.81435	920.08514	-1317.97729				-111.83754	706.88214	-1223.40015	-777.98499	693.35126	-1431.73352	-358.76233	809.99457	-1175.79712	-631.28827	809.32654	-1225.41345				-291.09833	369.78909	-1264.23022	-654.32452	413.70517	-1231.20093	-154.51891	125.12046	-1527.46863	-684.47986	74.90751	-1220.34387	
77	0.760	-519.91571	1353.95813	-1060.52661							-601.55994	1387.84656	-1182.90710	-265.73779	1197.27588	-1223.60974				-501.72394	1123.50720	-1165.64636				-186.33463	921.08398	-1310.82800				-121.54530	707.03094	-1214.18274	-786.60010	694.42572	-1415.03784	-365.63440	813.11603	-1166.59546	-639.08197	811.20941	-1214.05566				-297.33374	373.19189	-1243.15356	-658.66455	413.18423	-1226.98181	-160.39354	129.83366	-1516.50879	-685.21490	73.85169	-1219.46082	
78	0.770	-525.16028	1355.26501	-1053.92786							-607.51111	1389.47241	-1175.40173	-271.67984	1199.12585	-1217.24573				-507.68741	1125.90149	-1160.31311				-192.76491	924.87128	-1295.37195				-130.91960	708.59723	-1203.96887	-795.00391	697.94244	-1402.15820	-374.36417	814.02301	-1158.41199	-645.40863	813.20190	-1204.15076				-303.62048	374.09543	-1226.18616	-662.23126	412.31671	-1223.29822	-168.39915	133.98003	-1503.76904	-686.02368	73.16841	-1219.03699	
79	0.780	-531.03265	1357.21948	-1047.28503							-613.43182	1391.38489	-1168.78345	-276.97021	1199.89709	-1209.52185				-513.38855	1127.73157	-1152.87732				-201.22142	923.55237	-1292.20886				-139.65915	708.98102	-1194.48755	-804.23285	698.25031	-1384.08301	-382.29184	816.10596	-1152.29126	-652.20129	814.66974	-1195.45618				-311.57065	376.28259	-1203.87622	-667.43585	410.64197	-1220.93176	-176.84111	139.57771	-1490.76123	-687.59845	71.05788	-1217.44592	
80	0.790	-535.78314	1358.82751	-1040.35779	-695.93927	1199.74829	-1303.08105				-619.03925	1393.21960	-1161.88867	-282.64789	1201.02820	-1203.05847				-518.46869	1129.59900	-1146.01770				-207.16660	922.45898	-1283.99780				-148.86133	709.76068	-1184.45581	-813.01440	701.10876	-1370.28235	-388.34702	819.12164	-1142.30981	-659.10266	816.29340	-1186.49292				-319.56494	376.08044	-1193.23242	-671.21936	410.40146	-1216.81421	-187.16423	145.40167	-1477.55493	-689.23828	68.72881	-1217.56726	
81	0.800	-541.65149	1359.99023	-1033.22681	-701.05981	1202.22620	-1296.80676				-624.08307	1395.00940	-1155.46643	-287.88083	1201.60352	-1196.05664				-523.98260	1133.03186	-1139.21204				-212.44469	923.31781	-1277.48291				-156.73714	710.99420	-1169.22729	-822.40387	701.57617	-1352.33691	-395.35767	820.74377	-1132.63672	-665.17072	817.81415	-1178.96106				-329.10922	377.99606	-1171.28442	-674.65601	407.33994	-1214.33276	-196.22847	150.50922	-1464.38342	-690.77032	66.27617	-1217.15271	
